<svg xmlns="http://www.w3.org/2000/svg" version="1.1" height="68.33000183105469" width="245.9600067138672" xmlns:xlink="http://www.w3.org/1999/xlink" xmlns:svgjs="http://svgjs.com/svgjs">
    <defs id="SvgjsDefs1110"></defs>
    <g id="SvgjsG1111" rel="mainfill" name="main_text" xmlns:name="main_text" transform="translate(-8.289999961853027,-181.17999267578125)" fill="#ffffff">
        <path d="M8.29 197.53L24.45 197.53C30.48 197.60 32.26 201.71 32.26 206.37C32.26 211.10 30.21 214.93 24.45 214.93L20.00 214.93L20.00 221.51L23.77 221.51L35.75 241.16L43.29 238.29L32.12 219.86C37.33 217.26 40.62 212.05 40.62 206.37C40.62 198.36 34.79 190.68 24.45 190.68L8.29 190.68ZM8.29 240L16.58 240L16.58 200.96L8.29 200.96ZM64.18 229.18L81.37 229.18L85.41 241.16L93.63 239.25L76.10 190.68L67.95 190.68L79.04 222.26L66.03 222.26ZM48.08 239.25L56.16 241.16L61.10 226.44L68.84 202.74L64.45 193.90ZM117.60 240C133.70 240 142.81 230.68 142.81 215.34C142.81 200.27 133.70 190.68 117.60 190.68L103.42 190.68L103.42 198.01L118.29 198.01C128.36 198.01 134.18 204.59 134.18 215.34C134.18 226.10 128.36 232.67 118.29 232.67L115.14 232.67L115.14 240ZM103.42 240L111.71 240L111.71 201.44L103.42 201.44ZM154.59 240L162.88 240L162.88 190.68L154.59 190.68ZM200.00 196.85C208.97 196.85 216.23 203.56 216.23 215.34C216.23 226.78 209.32 232.60 202.95 233.49L204.32 241.16C214.11 239.93 224.79 231.37 224.79 215.34C224.79 199.93 214.86 189.18 200.00 189.18ZM199.59 233.84C190.89 233.84 183.29 227.33 183.29 215.34C183.29 203.42 190.48 198.36 195.96 197.26L194.66 189.66C185.00 191.16 174.66 199.38 174.66 215.34C174.66 231.03 184.79 241.51 199.59 241.51ZM244.79 240L253.08 240L253.08 195.62L244.79 202.88ZM229.79 203.42L234.38 208.49L254.25 190.68L244.79 190.68Z" fill="#ffffff" style="fill: rgb(255, 255, 255); width: 100%">
        </path>
    </g>
</svg>